<?xml version="1.0" encoding="UTF-8" standalone="no"?> <!-- Created with Vectornator for iOS (http://vectornator.io/) --><!DOCTYPE svg PUBLIC "-//W3C//DTD SVG 1.1//EN" "http://www.w3.org/Graphics/SVG/1.1/DTD/svg11.dtd">
<svg style="fill-rule:evenodd;clip-rule:evenodd;stroke-linecap:round;stroke-linejoin:round;" xmlns:vectornator="http://vectornator.io" xmlns:xlink="http://www.w3.org/1999/xlink" xmlns="http://www.w3.org/2000/svg" xml:space="preserve" version="1.1" viewBox="0 0 512 512">
<metadata>
<vectornator:setting key="DynamicGuides" value="1"/>
<vectornator:setting key="Units" value="Points"/>
<vectornator:setting key="GuidesVisible" value="1"/>
<vectornator:setting key="GridSpacing" value="36"/>
<vectornator:setting key="SnapToGuides" value="1"/>
<vectornator:setting key="RulersVisible" value="1"/>
</metadata>
<defs/>
<g id="Untitled" vectornator:layerName="Untitled">
<g opacity="1">
<path d="M475+214.8C475+214.7+475+214.6+475+214.4C475+214.2+474.9+214+474.9+213.9C474.9+213.8+474.9+213.7+474.8+213.6C474.7+213.4+474.7+213.2+474.6+213C474.6+212.9+474.5+212.8+474.5+212.8C474.4+212.5+474.3+212.3+474.1+212L474+211.9C473.9+211.7+473.7+211.5+473.6+211.3C473.5+211.2+473.5+211.1+473.4+211.1C473.3+211+473.2+210.8+473+210.7C472.9+210.6+472.8+210.5+472.7+210.4C472.6+210.3+472.5+210.2+472.4+210.1L389.3+142.1C370.2+104.5+336.2+76.7+295.7+65.6L260.3+36.6C257.7+34.5+254+34.5+251.4+36.6L216+65.5C208.6+67.5+201.3+70.2+194.3+73.3C163.3+87.3+137.8+111.7+122.4+142.1L39.3+210.1C39.2+210.2+39.1+210.3+39+210.4C38.9+210.5+38.8+210.6+38.7+210.6C38.6+210.7+38.4+210.9+38.3+211C38.2+211.1+38.2+211.1+38.1+211.2C37.9+211.4+37.8+211.6+37.7+211.8C37.7+211.8+37.7+211.9+37.6+211.9C37.5+212.2+37.3+212.4+37.2+212.7C37.2+212.8+37.1+212.9+37.1+212.9C37+213.1+37+213.3+36.9+213.5C36.9+213.6+36.8+213.7+36.8+213.8C36.8+214+36.7+214.2+36.7+214.3C36.7+214.4+36.7+214.5+36.7+214.7C36.7+214.9+36.7+215.1+36.7+215.2C36.7+215.3+36.7+215.3+36.7+215.4L36.7+416.4C36.7+449.8+63.8+476.9+97.2+476.9L414.3+476.9C447.7+476.9+474.8+449.8+474.8+416.4L474.8+215.4C474.8+215.3+474.8+215.3+474.8+215.2C475+215.2+475+215+475+214.8ZM455.9+214.6L453.1+216.3L400.7+247.8C400.8+247.5+400.8+247.3+400.9+247C401.2+246+401.4+244.9+401.7+243.9C401.8+243.5+401.9+243.1+402+242.7C402.3+241.3+402.6+239.9+402.9+238.5C402.9+238.4+402.9+238.3+403+238.2C403.3+236.9+403.5+235.6+403.7+234.3C403.8+233.9+403.8+233.4+403.9+233C404.1+232+404.2+230.9+404.4+229.9C404.5+229.5+404.5+229.1+404.6+228.6C404.8+227.2+404.9+225.7+405.1+224.3C405.1+224.2+405.1+224.2+405.1+224.1C405.2+222.7+405.3+221.3+405.4+219.9C405.4+219.5+405.5+219+405.5+218.6C405.6+217.5+405.6+216.5+405.7+215.4C405.7+215+405.7+214.5+405.7+214.1C405.7+212.6+405.8+211.2+405.8+209.7C405.8+208.1+405.8+206.5+405.7+204.8C405.7+204.3+405.7+203.8+405.6+203.3C405.6+202.2+405.5+201.1+405.4+200C405.4+199.4+405.3+198.8+405.3+198.2C405.2+197.1+405.1+196.1+405+195.1C404.9+194.5+404.9+194+404.8+193.4C404.7+192.3+404.5+191.1+404.4+190C404.3+189.5+404.3+189.1+404.2+188.6C404+187+403.7+185.4+403.5+183.9C403.5+183.7+403.4+183.5+403.4+183.3C403.2+181.9+402.9+180.6+402.6+179.2C402.5+178.7+402.4+178.2+402.3+177.6C402.1+176.6+401.8+175.5+401.6+174.5C401.5+173.9+401.3+173.4+401.2+172.8C400.9+171.8+400.7+170.8+400.4+169.8C400.3+169.4+400.2+169.1+400.1+168.7L455.9+214.6ZM256+51.1L267.7+60.7C260+60.1+252.1+60.1+244.3+60.7L256+51.1ZM200.3+86.1C207.1+83.1+214.1+80.6+221.3+78.7C238.3+74.2+256.2+73.1+273.6+75.4C277.9+76+282.3+76.7+286.5+77.7C287.9+78+289.3+78.4+290.7+78.7L290.7+78.7L290.7+78.7C328.5+88.7+360.1+114.6+377.5+149.7C386.8+168.5+391.5+188.7+391.5+209.7C391.5+210.8+391.5+211.9+391.5+212.9C391.5+213.3+391.5+213.6+391.5+213.9C391.5+214.6+391.5+215.4+391.4+216.1C391.4+216.5+391.4+216.9+391.3+217.4C391.3+218+391.2+218.7+391.2+219.3C391.2+219.8+391.1+220.2+391.1+220.7C391.1+221.3+391+221.9+390.9+222.5C390.9+223+390.8+223.4+390.8+223.9C390.7+224.5+390.7+225.1+390.6+225.7C390.5+226.2+390.5+226.7+390.4+227.1C390.3+227.7+390.3+228.3+390.2+228.8C390.1+229.3+390.1+229.8+390+230.2C389.9+230.8+389.8+231.3+389.7+231.9C389.6+232.4+389.5+232.9+389.4+233.4C389.3+234+389.2+234.5+389.1+235.1C389+235.6+388.9+236.1+388.8+236.6C388.7+237.2+388.6+237.7+388.5+238.3C388.4+238.8+388.3+239.3+388.2+239.8C388.1+240.4+387.9+240.9+387.8+241.5C387.7+242+387.6+242.5+387.4+242.9C387.3+243.5+387.1+244+387+244.5C386.9+245+386.7+245.5+386.6+245.9C386.4+246.4+386.3+247+386.1+247.5C386+248+385.8+248.5+385.7+248.9C385.5+249.4+385.4+250+385.2+250.5C385+251+384.9+251.4+384.7+251.9C384.5+252.4+384.3+253+384.1+253.5C383.9+254+383.8+254.4+383.6+254.9C383.4+255.4+383.2+256+383+256.5C382.8+257+382.7+257.4+382.5+257.9C382.4+258.1+382.4+258.2+382.3+258.4L256+334.6L129.6+258.8C129.6+258.7+129.5+258.6+129.5+258.5C129.3+258.1+129.2+257.6+129+257.2C128.8+256.7+128.6+256.2+128.5+255.7C128.3+255.3+128.2+254.8+128+254.4C127.8+253.9+127.7+253.4+127.5+252.9C127.4+252.5+127.2+252+127.1+251.6C126.9+251.1+126.8+250.6+126.6+250.1C126.5+249.7+126.3+249.2+126.2+248.8C126.1+248.3+125.9+247.8+125.8+247.3C125.7+246.8+125.5+246.4+125.4+245.9C125.3+245.4+125.1+244.9+125+244.4C124.9+243.9+124.8+243.5+124.6+243C124.5+242.5+124.4+242+124.2+241.6C124.1+241.1+124+240.7+123.9+240.2C123.8+239.7+123.7+239.3+123.6+238.8C123.5+238.3+123.4+237.8+123.3+237.4C123.2+236.9+123.1+236.5+123+236C122.9+235.5+122.8+235+122.7+234.5C122.6+234+122.5+233.6+122.5+233.1C122.4+232.6+122.3+232.1+122.2+231.6C122.1+231.2+122.1+230.7+122+230.3C121.9+229.8+121.8+229.3+121.8+228.7C121.7+228.3+121.7+227.8+121.6+227.4C121.5+226.9+121.5+226.3+121.4+225.8C121.3+225.4+121.3+224.9+121.3+224.5C121.2+224+121.2+223.4+121.1+222.9C121.1+222.5+121+222+121+221.6C121+221.1+120.9+220.5+120.9+220C120.9+219.5+120.8+219+120.8+218.6C120.8+218.1+120.7+217.6+120.7+217.1C120.7+216.3+120.6+215.5+120.6+214.8C120.6+214.6+120.6+214.4+120.6+214.2C120.5+212.7+120.5+211.1+120.5+209.8C120.5+208.5+120.5+207.2+120.6+205.9C120.7+203.4+120.8+200.8+121+198.3C121.1+196.7+121.3+195.2+121.5+193.6C123.3+178.4+127.7+163.7+134.5+149.8C148.3+121.6+171.7+99+200.3+86.1ZM112.1+168.8C112+169.1+111.9+169.5+111.8+169.8C111.5+170.8+111.3+171.8+111+172.8C110.9+173.4+110.7+173.9+110.6+174.5C110.3+175.5+110.1+176.6+109.9+177.6C109.8+178.1+109.7+178.6+109.6+179.2C109.3+180.5+109.1+181.8+108.8+183.2C108.8+183.4+108.7+183.7+108.7+183.9C108.4+185.5+108.2+187+108+188.6C107.9+189.1+107.9+189.5+107.8+190C107.7+191.1+107.5+192.2+107.4+193.4C107.3+194+107.3+194.6+107.2+195.1C107.1+196.1+107+197.2+106.9+198.2C106.9+198.8+106.8+199.4+106.8+200C106.7+201.1+106.7+202.2+106.6+203.3C106.6+203.8+106.6+204.3+106.5+204.8C106.4+206.4+106.4+208+106.4+209.6C106.4+210.6+106.4+211.8+106.4+213.1C106.4+213.6+106.4+214.1+106.4+214.6C106.4+214.7+106.4+214.7+106.4+214.8C106.4+216+106.5+217.2+106.6+218.4C106.6+218.8+106.7+219.2+106.7+219.6C106.8+220.5+106.8+221.4+106.9+222.2C106.9+222.6+107+223.1+107+223.5C107.1+224.4+107.2+225.3+107.3+226.2C107.3+226.6+107.4+226.9+107.4+227.3C107.5+228.6+107.7+229.8+107.9+231.1C107.9+231.3+108+231.5+108+231.8C108.2+232.8+108.3+233.9+108.5+234.9C108.6+235.3+108.6+235.7+108.7+236.2C108.9+237.1+109+237.9+109.2+238.8C109.3+239.2+109.4+239.7+109.5+240.1C109.7+241+109.9+242+110.1+242.9C110.2+243.2+110.2+243.5+110.3+243.8C110.6+245+110.9+246.3+111.2+247.5C111.2+247.6+111.2+247.6+111.2+247.7L56+214.6L112.1+168.8ZM414.6+463L97.4+463C71.8+463+51+442.1+51+416.5L51+227.9L90.1+251.4L120.4+269.6L120.4+269.6L252.4+348.8C253.5+349.5+254.8+349.8+256+349.8C257.2+349.8+258.5+349.5+259.6+348.8L448.1+235.7L461.1+227.9L461.1+416.5C461+442.1+440.2+463+414.6+463Z" opacity="1" fill="#8e1230"/>
<path d="M201.1+267.1C215.1+277+230.9+283.2+248.2+285L248.2+299.2C248.2+304.7+252.8+309.1+258.3+309.1C263.8+309.1+268.2+304.7+268.2+299.2L268.2+285.4C297.3+282.6+317.1+265.9+317.1+240.6C317.1+216+302.2+202+267.3+193.3L267.3+149.2C275.1+151+282.9+154.5+290.9+159.3C293.2+160.7+295.5+161.4+297.8+161.4C304.9+161.4+310.7+155.9+310.7+148.8C310.7+143.3+307.5+139.8+303.8+137.8C293.2+131.1+281.8+126.8+268.2+125.2L268.2+120.1C268.2+114.6+263.8+110.2+258.3+110.2C252.8+110.2+248.2+114.6+248.2+120.1L248.2+124.9C219.5+127.2+200+144.2+200+168.7C200+194.6+215.6+207.3+249.1+216L249.1+261.2C236.5+258.9+225.9+253.6+215.1+245.8C213+244.2+210.3+243.3+207.5+243.3C200.4+243.3+194.9+248.8+194.9+255.9C194.9+260.9+197.2+264.6+201.1+267.1ZM267.2+220.5C284.9+226+289.9+232.2+289.9+242.3C289.9+253.3+281.9+260.7+267.2+262.3L267.2+220.5ZM227.1+167.3C227.1+157.2+234.4+149.4+249.1+148L249.1+188.6C231.4+182.9+227.1+176.9+227.1+167.3Z" opacity="1" fill="#8e1230"/>
</g>
</g>
</svg>
