<?xml version="1.0" encoding="UTF-8" standalone="no"?> <!-- Created with Vectornator for iOS (http://vectornator.io/) --><!DOCTYPE svg PUBLIC "-//W3C//DTD SVG 1.1//EN" "http://www.w3.org/Graphics/SVG/1.1/DTD/svg11.dtd">
<svg style="fill-rule:evenodd;clip-rule:evenodd;stroke-linecap:round;stroke-linejoin:round;" xmlns:vectornator="http://vectornator.io" xmlns:xlink="http://www.w3.org/1999/xlink" xmlns="http://www.w3.org/2000/svg" xml:space="preserve" version="1.1" viewBox="0 0 32 32">
<metadata>
<vectornator:setting key="DynamicGuides" value="1"/>
<vectornator:setting key="Units" value="Pixels"/>
<vectornator:setting key="GuidesVisible" value="1"/>
<vectornator:setting key="GridSpacing" value="36"/>
<vectornator:setting key="SnapToGuides" value="1"/>
<vectornator:setting key="RulersVisible" value="1"/>
</metadata>
<defs/>
<g id="team_x2C__crew_x2C__group_1_" vectornator:layerName="team_x2C__crew_x2C__group_1_">
<g opacity="1">
<path d="M8+9C6.346+9+5+7.654+5+6C5+4.346+6.346+3+8+3C9.654+3+11+4.346+11+6C11+7.654+9.654+9+8+9ZM8+4C6.897+4+6+4.897+6+6C6+7.103+6.897+8+8+8C9.103+8+10+7.103+10+6C10+4.897+9.103+4+8+4Z" opacity="1" fill="#c31b18"/>
<path d="M5.5+31C5.224+31+5+30.776+5+30.5L5+25.5C5+25.224+5.224+25+5.5+25C5.776+25+6+25.224+6+25.5L6+30.5C6+30.776+5.776+31+5.5+31Z" opacity="1" fill="#c31b18"/>
<path d="M3.5+21C3.224+21+3+20.776+3+20.5L3+13.5C3+11.882+4.311+10+6+10L10.5+10C10.776+10+11+10.224+11+10.5C11+10.776+10.776+11+10.5+11L6+11C4.923+11+4+12.375+4+13.5L4+20.5C4+20.776+3.776+21+3.5+21Z" opacity="1" fill="#c31b18"/>
<path d="M5+24L2+24C1.449+24+1+23.552+1+23L1+21C1+20.448+1.449+20+2+20L5+20C5.551+20+6+20.448+6+21L6+23C6+23.552+5.551+24+5+24ZM5+23L5+23.5L5+23L5+23L5+23ZM2+21L2+23L4.999+23L5+21L2+21Z" opacity="1" fill="#c31b18"/>
</g>
<g opacity="1">
<path d="M26+9C24.346+9+23+7.654+23+6C23+4.346+24.346+3+26+3C27.654+3+29+4.346+29+6C29+7.654+27.654+9+26+9ZM26+4C24.897+4+24+4.897+24+6C24+7.103+24.897+8+26+8C27.103+8+28+7.103+28+6C28+4.897+27.103+4+26+4Z" opacity="1" fill="#c31b18"/>
<path d="M29.5+31C29.224+31+29+30.776+29+30.5L29+20.5C29+20.224+29.224+20+29.5+20C29.776+20+30+19.775+30+19.5L30+13.5C30+12.375+29.077+11+28+11L23.5+11C23.224+11+23+10.776+23+10.5C23+10.224+23.224+10+23.5+10L28+10C29.689+10+31+11.882+31+13.5L31+19.5C31+20.152+30.582+20.708+30+20.914L30+30.5C30+30.776+29.776+31+29.5+31Z" opacity="1" fill="#c31b18"/>
<path d="M24+24L22.5+24C22.224+24+22+23.776+22+23.5C22+23.224+22.224+23+22.5+23L24+23L24+21L22.5+21C22.224+21+22+20.776+22+20.5C22+20.224+22.224+20+22.5+20L24+20C24.551+20+25+20.448+25+21L25+23C25+23.552+24.551+24+24+24Z" opacity="1" fill="#c31b18"/>
</g>
<g opacity="1">
<path d="M17+7C15.346+7+14+5.654+14+4C14+2.346+15.346+1+17+1C18.654+1+20+2.346+20+4C20+5.654+18.654+7+17+7ZM17+2C15.897+2+15+2.897+15+4C15+5.103+15.897+6+17+6C18.103+6+19+5.103+19+4C19+2.897+18.103+2+17+2Z" opacity="1" fill="#c31b18"/>
<path d="M26.5+31C26.224+31+26+30.776+26+30.5L26+23.5C26+23.224+26.224+23+26.5+23C26.776+23+27+23.224+27+23.5L27+30.5C27+30.776+26.776+31+26.5+31Z" opacity="1" fill="#c31b18"/>
<path d="M8.5+31C8.224+31+8+30.776+8+30.5L8+23.5C8+23.224+8.224+23+8.5+23C8.776+23+9+23.224+9+23.5L9+30.5C9+30.776+8.776+31+8.5+31Z" opacity="1" fill="#c31b18"/>
<path d="M14.5+31C14.224+31+14+30.776+14+30.5L14+24.5C14+24.224+14.224+24+14.5+24C14.776+24+15+24.224+15+24.5L15+30.5C15+30.776+14.776+31+14.5+31Z" opacity="1" fill="#c31b18"/>
<path d="M20.5+31C20.224+31+20+30.776+20+30.5L20+19.5C20+19.224+20.224+19+20.5+19C20.776+19+21+18.775+21+18.5L21+11.5C21+10.375+20.077+9+19+9L15+9C13.923+9+12.937+10.386+12.886+11.521L12.5+19.524C12.487+19.799+12.234+20.022+11.977+19.999C11.701+19.986+11.488+19.752+11.501+19.476L11.888+11.474C11.961+9.835+13.309+8+15+8L19+8C20.689+8+22+9.882+22+11.5L22+18.5C22+19.152+21.582+19.708+21+19.914L21+30.5C21+30.776+20.776+31+20.5+31Z" opacity="1" fill="#c31b18"/>
<g opacity="1">
<path d="M17.5+30.5L17.5+21.5L17.5+30.5Z" opacity="1" fill="#c31b18"/>
<path d="M17.5+31C17.224+31+17+30.776+17+30.5L17+21.5C17+21.224+17.224+21+17.5+21C17.776+21+18+21.224+18+21.5L18+30.5C18+30.776+17.776+31+17.5+31Z" opacity="1" fill="#c31b18"/>
</g>
<path d="M14+23L11+23C10.449+23+10+22.552+10+22L10+20C10+19.448+10.449+19+11+19L14+19C14.551+19+15+19.448+15+20L15+22C15+22.552+14.551+23+14+23ZM14+22L14+22.5L14+22L14+22L14+22ZM11+20L11+22L13.999+22L14+20L11+20Z" opacity="1" fill="#c31b18"/>
</g>
</g>
</svg>
