<?xml version="1.0" ?><svg id="Layer_1" style="enable-background:new 0 0 442.547 442.547;" version="1.1" viewBox="0 0 442.547 442.547" xml:space="preserve" xmlns="http://www.w3.org/2000/svg" xmlns:xlink="http://www.w3.org/1999/xlink"><g id="XMLID_162_"><path d="M385.065,235.917c-0.406-25.71-10.618-49.857-28.756-67.995c-18.578-18.579-43.28-28.812-69.557-28.812   c-24.294,0-47.453,8.844-65.479,24.954c-18.025-16.11-41.185-24.954-65.479-24.954c-26.276,0-50.979,10.232-69.557,28.812   c-18.139,18.138-28.351,42.285-28.756,67.995c-0.404,25.65,8.98,50.052,26.479,68.769l135.258,135.761l1.783,2.101l2.125-1.901   l135.517-136.018C376.086,285.969,385.47,261.566,385.065,235.917z M355.045,301.156L221.273,435.426L87.558,301.214   c-16.555-17.708-25.46-40.87-25.076-65.218c0.384-24.404,10.076-47.324,27.291-64.539c17.634-17.635,41.081-27.347,66.021-27.347   c23.795,0,46.442,8.938,63.771,25.167l1.709,1.601l1.709-1.6c17.329-16.229,39.977-25.168,63.771-25.168   c24.94,0,48.388,9.712,66.021,27.347c17.214,17.215,26.906,40.135,27.291,64.538C380.449,260.344,371.544,283.505,355.045,301.156z   " id="XMLID_491_"/><path d="M221.273,137.83c15.464,0,29.469-7.902,37.465-21.138c7.995-13.236,8.473-29.31,1.277-42.997L221.273,0   l-38.741,73.695c-7.195,13.687-6.719,29.761,1.276,42.996C191.804,129.928,205.81,137.83,221.273,137.83z M186.958,76.021   l34.315-65.275l34.316,65.275c6.373,12.124,5.95,26.361-1.132,38.085c-7.082,11.725-19.487,18.724-33.185,18.724   s-26.103-6.999-33.185-18.724C181.007,102.383,180.584,88.146,186.958,76.021z" id="XMLID_507_"/><path d="M286.753,156.644c-20.736,0-40.471,7.787-55.567,21.926l-9.912,9.284l-9.912-9.283   c-15.096-14.14-34.83-21.927-55.567-21.927c-21.735,0-42.169,8.464-57.536,23.832c-14.999,14.999-23.443,34.973-23.778,56.242   c-0.334,21.224,7.424,41.407,21.845,56.834l0.662,0.752l124.284,124.658l123.665-124.087l1.394-1.437   c14.352-15.41,22.071-35.554,21.738-56.721c-0.336-21.271-8.78-41.244-23.779-56.242   C328.922,165.107,308.489,156.644,286.753,156.644z M342.706,289.993l-1.335,1.376L221.271,411.88L100.726,290.982l-0.749-0.846   c-4.068-4.351-7.559-9.113-10.46-14.177h81.757v38h26v28h45v-28h28v-38h82.76C350.162,280.973,346.717,285.686,342.706,289.993z    M251.273,275.96h14v33h-28v28h-35v-28h-26v-33h15h11v-28h35v28H251.273z M355.649,270.96h-85.375h-19h-9v-28h-45v28h-6h-20H86.902   c-5.028-10.527-7.612-22.164-7.422-34.164c0.313-19.964,8.238-38.71,22.313-52.785c14.423-14.424,33.601-22.367,54.001-22.367   c19.463,0,37.983,7.308,52.149,20.575l13.33,12.484l13.33-12.484c14.167-13.268,32.687-20.575,52.149-20.575   c20.4,0,39.578,7.943,54,22.367c14.075,14.075,22,32.821,22.314,52.785C363.257,248.797,360.671,260.438,355.649,270.96z" id="XMLID_536_"/></g><g/><g/><g/><g/><g/><g/><g/><g/><g/><g/><g/><g/><g/><g/><g/></svg>